# 3ds Max Wavefront OBJ Exporter v0.97b - (c)2007 guruware
# File Created: 08.11.2017 02:23:39

mtllib standee01.mtl

#
# object Plane01
#

v  -9.2084 37.7511 -0.6073
v  -9.2084 1.5654 1.3430
v  8.9108 1.5654 1.3430
v  8.9108 37.7511 -0.6073
# 4 vertices

vn 0.0000 0.0538 0.9986
# 1 vertex normals

vt 0.0000 1.0000 0.0000
vt 0.0000 0.0000 0.0000
vt 1.0000 0.0000 0.0000
vt 1.0000 1.0000 0.0000
# 4 texture coords

g Plane01
usemtl 01___Default
s 1
f 1/1/1 2/2/1 3/3/1 4/4/1 
# 1 polygons

#
# object Cylinder01
#

v  9.7322 37.8645 -0.6121
v  9.7322 38.2054 -0.2477
v  9.7322 38.0602 -0.1531
v  9.7322 37.8914 -0.1138
v  9.7322 38.3599 -0.5521
v  9.7322 38.3095 -0.3862
v  9.7322 38.2826 -0.8845
v  9.7322 38.3506 -0.7251
v  9.7322 38.0097 -1.0896
v  9.7322 38.1642 -1.0111
v  9.7322 37.6689 -1.0712
v  9.7322 37.8377 -1.1104
v  9.7322 37.4196 -0.8380
v  9.7322 37.5237 -0.9766
v  9.7322 37.3785 -0.4992
v  9.7322 37.3691 -0.6722
v  9.7322 37.5648 -0.2132
v  9.7322 37.4464 -0.3397
v  9.7322 37.7193 -0.1347
v  5.7467 38.0602 -0.1531
v  5.7467 37.8914 -0.1138
v  5.7467 38.2054 -0.2477
v  5.7467 38.3095 -0.3862
v  5.7467 38.3599 -0.5521
v  5.7467 38.3506 -0.7251
v  5.7467 38.2826 -0.8845
v  5.7467 38.1642 -1.0111
v  5.7467 38.0097 -1.0896
v  5.7467 37.8377 -1.1104
v  5.7467 37.6689 -1.0712
v  5.7467 37.5237 -0.9766
v  5.7467 37.4196 -0.8380
v  5.7467 37.3691 -0.6722
v  5.7467 37.3785 -0.4992
v  5.7467 37.4464 -0.3397
v  5.7467 37.5648 -0.2132
v  5.7467 37.7193 -0.1347
v  1.7611 38.0602 -0.1531
v  1.7611 37.8914 -0.1138
v  1.7611 38.2054 -0.2477
v  1.7611 38.3095 -0.3862
v  1.7611 38.3599 -0.5521
v  1.7611 38.3506 -0.7251
v  1.7611 38.2826 -0.8845
v  1.7611 38.1642 -1.0111
v  1.7611 38.0097 -1.0896
v  1.7611 37.8377 -1.1104
v  1.7611 37.6689 -1.0712
v  1.7611 37.5237 -0.9766
v  1.7611 37.4196 -0.8380
v  1.7611 37.3691 -0.6722
v  1.7611 37.3785 -0.4992
v  1.7611 37.4464 -0.3397
v  1.7611 37.5648 -0.2132
v  1.7611 37.7193 -0.1347
v  -2.2245 38.0602 -0.1531
v  -2.2245 37.8914 -0.1138
v  -2.2245 38.2054 -0.2477
v  -2.2245 38.3095 -0.3862
v  -2.2245 38.3599 -0.5521
v  -2.2245 38.3506 -0.7251
v  -2.2245 38.2826 -0.8845
v  -2.2245 38.1642 -1.0111
v  -2.2245 38.0097 -1.0896
v  -2.2245 37.8377 -1.1104
v  -2.2245 37.6689 -1.0712
v  -2.2245 37.5237 -0.9766
v  -2.2245 37.4196 -0.8380
v  -2.2245 37.3691 -0.6722
v  -2.2245 37.3785 -0.4992
v  -2.2245 37.4464 -0.3397
v  -2.2245 37.5648 -0.2132
v  -2.2245 37.7193 -0.1347
v  -6.2101 38.0602 -0.1531
v  -6.2101 37.8914 -0.1139
v  -6.2101 38.2054 -0.2477
v  -6.2101 38.3095 -0.3863
v  -6.2101 38.3599 -0.5521
v  -6.2101 38.3506 -0.7251
v  -6.2101 38.2826 -0.8845
v  -6.2101 38.1642 -1.0111
v  -6.2101 38.0097 -1.0896
v  -6.2101 37.8377 -1.1104
v  -6.2101 37.6689 -1.0712
v  -6.2101 37.5237 -0.9766
v  -6.2101 37.4196 -0.8380
v  -6.2101 37.3691 -0.6722
v  -6.2101 37.3785 -0.4992
v  -6.2101 37.4464 -0.3397
v  -6.2101 37.5648 -0.2132
v  -6.2101 37.7193 -0.1347
v  -10.1957 38.0602 -0.1531
v  -10.1957 37.8914 -0.1139
v  -10.1957 38.2054 -0.2477
v  -10.1957 38.3095 -0.3863
v  -10.1957 38.3599 -0.5521
v  -10.1957 38.3506 -0.7251
v  -10.1957 38.2826 -0.8845
v  -10.1957 38.1642 -1.0111
v  -10.1957 38.0097 -1.0896
v  -10.1957 37.8377 -1.1104
v  -10.1957 37.6689 -1.0712
v  -10.1957 37.5237 -0.9766
v  -10.1957 37.4196 -0.8380
v  -10.1957 37.3691 -0.6722
v  -10.1957 37.3785 -0.4992
v  -10.1957 37.4464 -0.3397
v  -10.1957 37.5648 -0.2132
v  -10.1957 37.7193 -0.1347
v  -10.1957 37.8645 -0.6121
# 110 vertices

vn 1.0000 0.0000 0.0000
vn -0.0000 0.0538 0.9986
vn -0.0000 0.3921 0.9199
vn -0.0000 0.6831 0.7303
vn -0.0000 0.8917 0.4527
vn -0.0000 0.9927 0.1204
vn 0.0000 0.9740 -0.2264
vn -0.0000 0.9740 -0.2264
vn 0.0000 0.8379 -0.5459
vn 0.0000 0.6006 -0.7995
vn 0.0000 0.2910 -0.9567
vn 0.0000 -0.0538 -0.9986
vn 0.0000 -0.3921 -0.9199
vn 0.0000 -0.6831 -0.7303
vn 0.0000 -0.8917 -0.4527
vn 0.0000 -0.9927 -0.1204
vn 0.0000 -0.9740 0.2264
vn -0.0000 -0.8379 0.5459
vn -0.0000 -0.6006 0.7995
vn -0.0000 -0.2910 0.9567
vn -1.0000 -0.0000 -0.0000
# 21 vertex normals

vt 0.5000 0.0000 0.0000
vt 0.8611 0.0000 1.0000
vt 0.8056 0.0000 1.0000
vt 0.7500 0.0000 1.0000
vt 0.9722 0.0000 1.0000
vt 0.9167 0.0000 1.0000
vt 0.0833 0.0000 1.0000
vt 0.0278 0.0000 1.0000
vt -0.0278 0.0000 1.0000
vt 0.1944 0.0000 1.0000
vt 0.1389 0.0000 1.0000
vt 0.3056 0.0000 1.0000
vt 0.2500 0.0000 1.0000
vt 0.4167 0.0000 1.0000
vt 0.3611 0.0000 1.0000
vt 0.5278 0.0000 1.0000
vt 0.4722 0.0000 1.0000
vt 0.6389 0.0000 1.0000
vt 0.5833 0.0000 1.0000
vt 0.6944 0.0000 1.0000
vt 0.8056 0.2000 1.0000
vt 0.7500 0.2000 1.0000
vt 0.8611 0.2000 1.0000
vt 0.9167 0.2000 1.0000
vt 0.9722 0.2000 1.0000
vt 0.0278 0.2000 1.0000
vt -0.0278 0.2000 1.0000
vt 0.0833 0.2000 1.0000
vt 0.1389 0.2000 1.0000
vt 0.1944 0.2000 1.0000
vt 0.2500 0.2000 1.0000
vt 0.3056 0.2000 1.0000
vt 0.3611 0.2000 1.0000
vt 0.4167 0.2000 1.0000
vt 0.4722 0.2000 1.0000
vt 0.5278 0.2000 1.0000
vt 0.5833 0.2000 1.0000
vt 0.6389 0.2000 1.0000
vt 0.6944 0.2000 1.0000
vt 0.8056 0.4000 1.0000
vt 0.7500 0.4000 1.0000
vt 0.8611 0.4000 1.0000
vt 0.9167 0.4000 1.0000
vt 0.9722 0.4000 1.0000
vt 0.0278 0.4000 1.0000
vt -0.0278 0.4000 1.0000
vt 0.0833 0.4000 1.0000
vt 0.1389 0.4000 1.0000
vt 0.1944 0.4000 1.0000
vt 0.2500 0.4000 1.0000
vt 0.3056 0.4000 1.0000
vt 0.3611 0.4000 1.0000
vt 0.4167 0.4000 1.0000
vt 0.4722 0.4000 1.0000
vt 0.5278 0.4000 1.0000
vt 0.5833 0.4000 1.0000
vt 0.6389 0.4000 1.0000
vt 0.6944 0.4000 1.0000
vt 0.8056 0.6000 1.0000
vt 0.7500 0.6000 1.0000
vt 0.8611 0.6000 1.0000
vt 0.9167 0.6000 1.0000
vt 0.9722 0.6000 1.0000
vt 0.0278 0.6000 1.0000
vt -0.0278 0.6000 1.0000
vt 0.0833 0.6000 1.0000
vt 0.1389 0.6000 1.0000
vt 0.1944 0.6000 1.0000
vt 0.2500 0.6000 1.0000
vt 0.3056 0.6000 1.0000
vt 0.3611 0.6000 1.0000
vt 0.4167 0.6000 1.0000
vt 0.4722 0.6000 1.0000
vt 0.5278 0.6000 1.0000
vt 0.5833 0.6000 1.0000
vt 0.6389 0.6000 1.0000
vt 0.6944 0.6000 1.0000
vt 0.8056 0.8000 1.0000
vt 0.7500 0.8000 1.0000
vt 0.8611 0.8000 1.0000
vt 0.9167 0.8000 1.0000
vt 0.9722 0.8000 1.0000
vt 0.0278 0.8000 1.0000
vt -0.0278 0.8000 1.0000
vt 0.0833 0.8000 1.0000
vt 0.1389 0.8000 1.0000
vt 0.1944 0.8000 1.0000
vt 0.2500 0.8000 1.0000
vt 0.3056 0.8000 1.0000
vt 0.3611 0.8000 1.0000
vt 0.4167 0.8000 1.0000
vt 0.4722 0.8000 1.0000
vt 0.5278 0.8000 1.0000
vt 0.5833 0.8000 1.0000
vt 0.6389 0.8000 1.0000
vt 0.6944 0.8000 1.0000
vt 0.8056 1.0000 1.0000
vt 0.7500 1.0000 1.0000
vt 0.8611 1.0000 1.0000
vt 0.9167 1.0000 1.0000
vt 0.9722 1.0000 1.0000
vt 0.0278 1.0000 1.0000
vt -0.0278 1.0000 1.0000
vt 0.0833 1.0000 1.0000
vt 0.1389 1.0000 1.0000
vt 0.1944 1.0000 1.0000
vt 0.2500 1.0000 1.0000
vt 0.3056 1.0000 1.0000
vt 0.3611 1.0000 1.0000
vt 0.4167 1.0000 1.0000
vt 0.4722 1.0000 1.0000
vt 0.5278 1.0000 1.0000
vt 0.5833 1.0000 1.0000
vt 0.6389 1.0000 1.0000
vt 0.6944 1.0000 1.0000
vt 0.5000 1.0000 0.0000
vt 0.9708 1.0000 0.8794
# 117 texture coords

g Cylinder01
usemtl 02___Default
s 1
f 5/5/2 6/6/2 7/7/2 8/8/2 
f 5/5/2 9/9/2 10/10/2 6/6/2 
f 5/5/2 11/11/2 12/12/2 9/13/2 
f 5/5/2 13/14/2 14/15/2 11/11/2 
f 5/5/2 15/16/2 16/17/2 13/14/2 
f 5/5/2 17/18/2 18/19/2 15/16/2 
f 5/5/2 19/20/2 20/21/2 17/18/2 
f 5/5/2 21/22/2 22/23/2 19/20/2 
f 5/5/2 8/8/2 23/24/2 21/22/2 
s 8
f 8/8/3 7/7/4 24/25/4 25/26/3 
f 7/7/4 6/6/5 26/27/5 24/25/4 
f 6/6/5 10/10/6 27/28/6 26/27/5 
f 10/10/6 9/9/7 28/29/7 27/28/6 
f 9/13/7 12/12/8 29/30/9 28/31/7 
f 12/12/8 11/11/10 30/32/10 29/30/9 
f 11/11/10 14/15/11 31/33/11 30/32/10 
f 14/15/11 13/14/12 32/34/12 31/33/11 
f 13/14/12 16/17/13 33/35/13 32/34/12 
f 16/17/13 15/16/14 34/36/14 33/35/13 
f 15/16/14 18/19/15 35/37/15 34/36/14 
f 18/19/15 17/18/16 36/38/16 35/37/15 
f 17/18/16 20/21/17 37/39/17 36/38/16 
f 20/21/17 19/20/18 38/40/18 37/39/17 
f 19/20/18 22/23/19 39/41/19 38/40/18 
f 22/23/19 21/22/20 40/42/20 39/41/19 
f 21/22/20 23/24/21 41/43/21 40/42/20 
f 23/24/21 8/8/3 25/26/3 41/43/21 
f 25/26/3 24/25/4 42/44/4 43/45/3 
f 24/25/4 26/27/5 44/46/5 42/44/4 
f 26/27/5 27/28/6 45/47/6 44/46/5 
f 27/28/6 28/29/7 46/48/7 45/47/6 
f 28/31/7 29/30/9 47/49/9 46/50/7 
f 29/30/9 30/32/10 48/51/10 47/49/9 
f 30/32/10 31/33/11 49/52/11 48/51/10 
f 31/33/11 32/34/12 50/53/12 49/52/11 
f 32/34/12 33/35/13 51/54/13 50/53/12 
f 33/35/13 34/36/14 52/55/14 51/54/13 
f 34/36/14 35/37/15 53/56/15 52/55/14 
f 35/37/15 36/38/16 54/57/16 53/56/15 
f 36/38/16 37/39/17 55/58/17 54/57/16 
f 37/39/17 38/40/18 56/59/18 55/58/17 
f 38/40/18 39/41/19 57/60/19 56/59/18 
f 39/41/19 40/42/20 58/61/20 57/60/19 
f 40/42/20 41/43/21 59/62/21 58/61/20 
f 41/43/21 25/26/3 43/45/3 59/62/21 
f 43/45/3 42/44/4 60/63/4 61/64/3 
f 42/44/4 44/46/5 62/65/5 60/63/4 
f 44/46/5 45/47/6 63/66/6 62/65/5 
f 45/47/6 46/48/7 64/67/7 63/66/6 
f 46/50/7 47/49/9 65/68/9 64/69/7 
f 47/49/9 48/51/10 66/70/10 65/68/9 
f 48/51/10 49/52/11 67/71/11 66/70/10 
f 49/52/11 50/53/12 68/72/12 67/71/11 
f 50/53/12 51/54/13 69/73/13 68/72/12 
f 51/54/13 52/55/14 70/74/14 69/73/13 
f 52/55/14 53/56/15 71/75/15 70/74/14 
f 53/56/15 54/57/16 72/76/16 71/75/15 
f 54/57/16 55/58/17 73/77/17 72/76/16 
f 55/58/17 56/59/18 74/78/18 73/77/17 
f 56/59/18 57/60/19 75/79/19 74/78/18 
f 57/60/19 58/61/20 76/80/20 75/79/19 
f 58/61/20 59/62/21 77/81/21 76/80/20 
f 59/62/21 43/45/3 61/64/3 77/81/21 
f 61/64/3 60/63/4 78/82/4 79/83/3 
f 60/63/4 62/65/5 80/84/5 78/82/4 
f 62/65/5 63/66/6 81/85/6 80/84/5 
f 63/66/6 64/67/7 82/86/7 81/85/6 
f 64/69/7 65/68/9 83/87/9 82/88/7 
f 65/68/9 66/70/10 84/89/10 83/87/9 
f 66/70/10 67/71/11 85/90/11 84/89/10 
f 67/71/11 68/72/12 86/91/12 85/90/11 
f 68/72/12 69/73/13 87/92/13 86/91/12 
f 69/73/13 70/74/14 88/93/14 87/92/13 
f 70/74/14 71/75/15 89/94/15 88/93/14 
f 71/75/15 72/76/16 90/95/16 89/94/15 
f 72/76/16 73/77/17 91/96/17 90/95/16 
f 73/77/17 74/78/18 92/97/18 91/96/17 
f 74/78/18 75/79/19 93/98/19 92/97/18 
f 75/79/19 76/80/20 94/99/20 93/98/19 
f 76/80/20 77/81/21 95/100/21 94/99/20 
f 77/81/21 61/64/3 79/83/3 95/100/21 
f 79/83/3 78/82/4 96/101/4 97/102/3 
f 78/82/4 80/84/5 98/103/5 96/101/4 
f 80/84/5 81/85/6 99/104/6 98/103/5 
f 81/85/6 82/86/7 100/105/7 99/104/6 
f 82/88/7 83/87/9 101/106/9 100/107/7 
f 83/87/9 84/89/10 102/108/10 101/106/9 
f 84/89/10 85/90/11 103/109/11 102/108/10 
f 85/90/11 86/91/12 104/110/12 103/109/11 
f 86/91/12 87/92/13 105/111/13 104/110/12 
f 87/92/13 88/93/14 106/112/14 105/111/13 
f 88/93/14 89/94/15 107/113/15 106/112/14 
f 89/94/15 90/95/16 108/114/16 107/113/15 
f 90/95/16 91/96/17 109/115/17 108/114/16 
f 91/96/17 92/97/18 110/116/18 109/115/17 
f 92/97/18 93/98/19 111/117/19 110/116/18 
f 93/98/19 94/99/20 112/118/20 111/117/19 
f 94/99/20 95/100/21 113/119/21 112/118/20 
f 95/100/21 79/83/3 97/102/3 113/119/21 
s 1
f 114/120/22 113/119/22 97/102/22 96/101/22 
f 114/120/22 96/101/22 98/103/22 99/104/22 
f 114/120/22 99/104/22 100/105/22 101/121/22 
f 114/120/22 101/106/22 102/108/22 103/109/22 
f 114/120/22 103/109/22 104/110/22 105/111/22 
f 114/120/22 105/111/22 106/112/22 107/113/22 
f 114/120/22 107/113/22 108/114/22 109/115/22 
f 114/120/22 109/115/22 110/116/22 111/117/22 
f 114/120/22 111/117/22 112/118/22 113/119/22 
# 108 polygons

#
# object Cylinder02
#

v  9.7322 1.4708 1.3494
v  9.7322 1.8116 1.7138
v  9.7322 1.6664 1.8084
v  9.7322 1.4976 1.8477
v  9.7322 1.9661 1.4095
v  9.7322 1.9157 1.5753
v  9.7322 1.8889 1.0770
v  9.7322 1.9568 1.2364
v  9.7322 1.6160 0.8720
v  9.7322 1.7705 0.9504
v  9.7322 1.2751 0.8903
v  9.7322 1.4439 0.8511
v  9.7322 1.0258 1.1235
v  9.7322 1.1299 0.9849
v  9.7322 0.9847 1.4624
v  9.7322 0.9754 1.2893
v  9.7322 1.1711 1.7484
v  9.7322 1.0527 1.6218
v  9.7322 1.3256 1.8268
v  5.7467 1.6664 1.8084
v  5.7467 1.4976 1.8477
v  5.7467 1.8116 1.7138
v  5.7467 1.9157 1.5753
v  5.7467 1.9661 1.4095
v  5.7467 1.9568 1.2364
v  5.7467 1.8889 1.0770
v  5.7467 1.7705 0.9504
v  5.7467 1.6160 0.8720
v  5.7467 1.4439 0.8511
v  5.7467 1.2751 0.8903
v  5.7467 1.1299 0.9849
v  5.7467 1.0258 1.1235
v  5.7467 0.9754 1.2893
v  5.7467 0.9847 1.4624
v  5.7467 1.0527 1.6218
v  5.7467 1.1710 1.7484
v  5.7467 1.3256 1.8268
v  1.7611 1.6664 1.8084
v  1.7611 1.4976 1.8477
v  1.7611 1.8116 1.7138
v  1.7611 1.9157 1.5753
v  1.7611 1.9661 1.4095
v  1.7611 1.9568 1.2364
v  1.7611 1.8889 1.0770
v  1.7611 1.7705 0.9504
v  1.7611 1.6160 0.8720
v  1.7611 1.4439 0.8511
v  1.7611 1.2751 0.8903
v  1.7611 1.1299 0.9849
v  1.7611 1.0258 1.1235
v  1.7611 0.9754 1.2893
v  1.7611 0.9847 1.4624
v  1.7611 1.0527 1.6218
v  1.7611 1.1710 1.7484
v  1.7611 1.3256 1.8268
v  -2.2245 1.6664 1.8084
v  -2.2245 1.4976 1.8477
v  -2.2245 1.8116 1.7138
v  -2.2245 1.9157 1.5753
v  -2.2245 1.9661 1.4095
v  -2.2245 1.9568 1.2364
v  -2.2245 1.8889 1.0770
v  -2.2245 1.7705 0.9504
v  -2.2245 1.6160 0.8720
v  -2.2245 1.4439 0.8511
v  -2.2245 1.2751 0.8903
v  -2.2245 1.1299 0.9849
v  -2.2245 1.0258 1.1235
v  -2.2245 0.9754 1.2893
v  -2.2245 0.9847 1.4624
v  -2.2245 1.0527 1.6218
v  -2.2245 1.1710 1.7484
v  -2.2245 1.3256 1.8268
v  -6.2101 1.6664 1.8084
v  -6.2101 1.4976 1.8477
v  -6.2101 1.8116 1.7138
v  -6.2101 1.9157 1.5753
v  -6.2101 1.9661 1.4095
v  -6.2101 1.9568 1.2364
v  -6.2101 1.8889 1.0770
v  -6.2101 1.7705 0.9504
v  -6.2101 1.6160 0.8720
v  -6.2101 1.4439 0.8511
v  -6.2101 1.2751 0.8903
v  -6.2101 1.1299 0.9849
v  -6.2101 1.0258 1.1235
v  -6.2101 0.9754 1.2893
v  -6.2101 0.9847 1.4624
v  -6.2101 1.0527 1.6218
v  -6.2101 1.1710 1.7484
v  -6.2101 1.3256 1.8268
v  -10.1957 1.6664 1.8084
v  -10.1957 1.4976 1.8477
v  -10.1957 1.8116 1.7138
v  -10.1957 1.9157 1.5753
v  -10.1957 1.9661 1.4095
v  -10.1957 1.9568 1.2364
v  -10.1957 1.8889 1.0770
v  -10.1957 1.7705 0.9504
v  -10.1957 1.6160 0.8720
v  -10.1957 1.4439 0.8511
v  -10.1957 1.2751 0.8903
v  -10.1957 1.1299 0.9849
v  -10.1957 1.0258 1.1235
v  -10.1957 0.9754 1.2893
v  -10.1957 0.9847 1.4624
v  -10.1957 1.0527 1.6218
v  -10.1957 1.1710 1.7484
v  -10.1957 1.3256 1.8268
v  -10.1957 1.4708 1.3494
# 110 vertices

vn 1.0000 0.0000 0.0000
vn -0.0000 0.0538 0.9986
vn -0.0000 0.3921 0.9199
vn -0.0000 0.6831 0.7303
vn -0.0000 0.8917 0.4527
vn -0.0000 0.9927 0.1204
vn 0.0000 0.9740 -0.2264
vn -0.0000 0.9740 -0.2264
vn 0.0000 0.8379 -0.5459
vn 0.0000 0.6006 -0.7995
vn 0.0000 0.2910 -0.9567
vn 0.0000 -0.0538 -0.9986
vn 0.0000 -0.3921 -0.9199
vn 0.0000 -0.6831 -0.7303
vn 0.0000 -0.8917 -0.4527
vn 0.0000 -0.9927 -0.1204
vn 0.0000 -0.9740 0.2264
vn -0.0000 -0.8379 0.5459
vn -0.0000 -0.6006 0.7995
vn -0.0000 -0.2910 0.9567
vn -1.0000 -0.0000 -0.0000
# 21 vertex normals

vt 0.5000 0.0000 0.0000
vt 0.8611 0.0000 1.0000
vt 0.8056 0.0000 1.0000
vt 0.7500 0.0000 1.0000
vt 0.9722 0.0000 1.0000
vt 0.9167 0.0000 1.0000
vt 0.0833 0.0000 1.0000
vt 0.0278 0.0000 1.0000
vt -0.0278 0.0000 1.0000
vt 0.1944 0.0000 1.0000
vt 0.1389 0.0000 1.0000
vt 0.3056 0.0000 1.0000
vt 0.2500 0.0000 1.0000
vt 0.4167 0.0000 1.0000
vt 0.3611 0.0000 1.0000
vt 0.5278 0.0000 1.0000
vt 0.4722 0.0000 1.0000
vt 0.6389 0.0000 1.0000
vt 0.5833 0.0000 1.0000
vt 0.6944 0.0000 1.0000
vt 0.8056 0.2000 1.0000
vt 0.7500 0.2000 1.0000
vt 0.8611 0.2000 1.0000
vt 0.9167 0.2000 1.0000
vt 0.9722 0.2000 1.0000
vt 0.0278 0.2000 1.0000
vt -0.0278 0.2000 1.0000
vt 0.0833 0.2000 1.0000
vt 0.1389 0.2000 1.0000
vt 0.1944 0.2000 1.0000
vt 0.2500 0.2000 1.0000
vt 0.3056 0.2000 1.0000
vt 0.3611 0.2000 1.0000
vt 0.4167 0.2000 1.0000
vt 0.4722 0.2000 1.0000
vt 0.5278 0.2000 1.0000
vt 0.5833 0.2000 1.0000
vt 0.6389 0.2000 1.0000
vt 0.6944 0.2000 1.0000
vt 0.8056 0.4000 1.0000
vt 0.7500 0.4000 1.0000
vt 0.8611 0.4000 1.0000
vt 0.9167 0.4000 1.0000
vt 0.9722 0.4000 1.0000
vt 0.0278 0.4000 1.0000
vt -0.0278 0.4000 1.0000
vt 0.0833 0.4000 1.0000
vt 0.1389 0.4000 1.0000
vt 0.1944 0.4000 1.0000
vt 0.2500 0.4000 1.0000
vt 0.3056 0.4000 1.0000
vt 0.3611 0.4000 1.0000
vt 0.4167 0.4000 1.0000
vt 0.4722 0.4000 1.0000
vt 0.5278 0.4000 1.0000
vt 0.5833 0.4000 1.0000
vt 0.6389 0.4000 1.0000
vt 0.6944 0.4000 1.0000
vt 0.8056 0.6000 1.0000
vt 0.7500 0.6000 1.0000
vt 0.8611 0.6000 1.0000
vt 0.9167 0.6000 1.0000
vt 0.9722 0.6000 1.0000
vt 0.0278 0.6000 1.0000
vt -0.0278 0.6000 1.0000
vt 0.0833 0.6000 1.0000
vt 0.1389 0.6000 1.0000
vt 0.1944 0.6000 1.0000
vt 0.2500 0.6000 1.0000
vt 0.3056 0.6000 1.0000
vt 0.3611 0.6000 1.0000
vt 0.4167 0.6000 1.0000
vt 0.4722 0.6000 1.0000
vt 0.5278 0.6000 1.0000
vt 0.5833 0.6000 1.0000
vt 0.6389 0.6000 1.0000
vt 0.6944 0.6000 1.0000
vt 0.8056 0.8000 1.0000
vt 0.7500 0.8000 1.0000
vt 0.8611 0.8000 1.0000
vt 0.9167 0.8000 1.0000
vt 0.9722 0.8000 1.0000
vt 0.0278 0.8000 1.0000
vt -0.0278 0.8000 1.0000
vt 0.0833 0.8000 1.0000
vt 0.1389 0.8000 1.0000
vt 0.1944 0.8000 1.0000
vt 0.2500 0.8000 1.0000
vt 0.3056 0.8000 1.0000
vt 0.3611 0.8000 1.0000
vt 0.4167 0.8000 1.0000
vt 0.4722 0.8000 1.0000
vt 0.5278 0.8000 1.0000
vt 0.5833 0.8000 1.0000
vt 0.6389 0.8000 1.0000
vt 0.6944 0.8000 1.0000
vt 0.8056 1.0000 1.0000
vt 0.7500 1.0000 1.0000
vt 0.8611 1.0000 1.0000
vt 0.9167 1.0000 1.0000
vt 0.9722 1.0000 1.0000
vt 0.0278 1.0000 1.0000
vt -0.0278 1.0000 1.0000
vt 0.0833 1.0000 1.0000
vt 0.1389 1.0000 1.0000
vt 0.1944 1.0000 1.0000
vt 0.2500 1.0000 1.0000
vt 0.3056 1.0000 1.0000
vt 0.3611 1.0000 1.0000
vt 0.4167 1.0000 1.0000
vt 0.4722 1.0000 1.0000
vt 0.5278 1.0000 1.0000
vt 0.5833 1.0000 1.0000
vt 0.6389 1.0000 1.0000
vt 0.6944 1.0000 1.0000
vt 0.5000 1.0000 0.0000
vt 0.9708 1.0000 0.8794
# 117 texture coords

g Cylinder02
usemtl 02___Default
s 1
f 115/122/23 116/123/23 117/124/23 118/125/23 
f 115/122/23 119/126/23 120/127/23 116/123/23 
f 115/122/23 121/128/23 122/129/23 119/130/23 
f 115/122/23 123/131/23 124/132/23 121/128/23 
f 115/122/23 125/133/23 126/134/23 123/131/23 
f 115/122/23 127/135/23 128/136/23 125/133/23 
f 115/122/23 129/137/23 130/138/23 127/135/23 
f 115/122/23 131/139/23 132/140/23 129/137/23 
f 115/122/23 118/125/23 133/141/23 131/139/23 
s 8
f 118/125/24 117/124/25 134/142/25 135/143/24 
f 117/124/25 116/123/26 136/144/26 134/142/25 
f 116/123/26 120/127/27 137/145/27 136/144/26 
f 120/127/27 119/126/28 138/146/28 137/145/27 
f 119/130/28 122/129/29 139/147/30 138/148/28 
f 122/129/29 121/128/31 140/149/31 139/147/30 
f 121/128/31 124/132/32 141/150/32 140/149/31 
f 124/132/32 123/131/33 142/151/33 141/150/32 
f 123/131/33 126/134/34 143/152/34 142/151/33 
f 126/134/34 125/133/35 144/153/35 143/152/34 
f 125/133/35 128/136/36 145/154/36 144/153/35 
f 128/136/36 127/135/37 146/155/37 145/154/36 
f 127/135/37 130/138/38 147/156/38 146/155/37 
f 130/138/38 129/137/39 148/157/39 147/156/38 
f 129/137/39 132/140/40 149/158/40 148/157/39 
f 132/140/40 131/139/41 150/159/41 149/158/40 
f 131/139/41 133/141/42 151/160/42 150/159/41 
f 133/141/42 118/125/24 135/143/24 151/160/42 
f 135/143/24 134/142/25 152/161/25 153/162/24 
f 134/142/25 136/144/26 154/163/26 152/161/25 
f 136/144/26 137/145/27 155/164/27 154/163/26 
f 137/145/27 138/146/28 156/165/28 155/164/27 
f 138/148/28 139/147/30 157/166/30 156/167/28 
f 139/147/30 140/149/31 158/168/31 157/166/30 
f 140/149/31 141/150/32 159/169/32 158/168/31 
f 141/150/32 142/151/33 160/170/33 159/169/32 
f 142/151/33 143/152/34 161/171/34 160/170/33 
f 143/152/34 144/153/35 162/172/35 161/171/34 
f 144/153/35 145/154/36 163/173/36 162/172/35 
f 145/154/36 146/155/37 164/174/37 163/173/36 
f 146/155/37 147/156/38 165/175/38 164/174/37 
f 147/156/38 148/157/39 166/176/39 165/175/38 
f 148/157/39 149/158/40 167/177/40 166/176/39 
f 149/158/40 150/159/41 168/178/41 167/177/40 
f 150/159/41 151/160/42 169/179/42 168/178/41 
f 151/160/42 135/143/24 153/162/24 169/179/42 
f 153/162/24 152/161/25 170/180/25 171/181/24 
f 152/161/25 154/163/26 172/182/26 170/180/25 
f 154/163/26 155/164/27 173/183/27 172/182/26 
f 155/164/27 156/165/28 174/184/28 173/183/27 
f 156/167/28 157/166/30 175/185/30 174/186/28 
f 157/166/30 158/168/31 176/187/31 175/185/30 
f 158/168/31 159/169/32 177/188/32 176/187/31 
f 159/169/32 160/170/33 178/189/33 177/188/32 
f 160/170/33 161/171/34 179/190/34 178/189/33 
f 161/171/34 162/172/35 180/191/35 179/190/34 
f 162/172/35 163/173/36 181/192/36 180/191/35 
f 163/173/36 164/174/37 182/193/37 181/192/36 
f 164/174/37 165/175/38 183/194/38 182/193/37 
f 165/175/38 166/176/39 184/195/39 183/194/38 
f 166/176/39 167/177/40 185/196/40 184/195/39 
f 167/177/40 168/178/41 186/197/41 185/196/40 
f 168/178/41 169/179/42 187/198/42 186/197/41 
f 169/179/42 153/162/24 171/181/24 187/198/42 
f 171/181/24 170/180/25 188/199/25 189/200/24 
f 170/180/25 172/182/26 190/201/26 188/199/25 
f 172/182/26 173/183/27 191/202/27 190/201/26 
f 173/183/27 174/184/28 192/203/28 191/202/27 
f 174/186/28 175/185/30 193/204/30 192/205/28 
f 175/185/30 176/187/31 194/206/31 193/204/30 
f 176/187/31 177/188/32 195/207/32 194/206/31 
f 177/188/32 178/189/33 196/208/33 195/207/32 
f 178/189/33 179/190/34 197/209/34 196/208/33 
f 179/190/34 180/191/35 198/210/35 197/209/34 
f 180/191/35 181/192/36 199/211/36 198/210/35 
f 181/192/36 182/193/37 200/212/37 199/211/36 
f 182/193/37 183/194/38 201/213/38 200/212/37 
f 183/194/38 184/195/39 202/214/39 201/213/38 
f 184/195/39 185/196/40 203/215/40 202/214/39 
f 185/196/40 186/197/41 204/216/41 203/215/40 
f 186/197/41 187/198/42 205/217/42 204/216/41 
f 187/198/42 171/181/24 189/200/24 205/217/42 
f 189/200/24 188/199/25 206/218/25 207/219/24 
f 188/199/25 190/201/26 208/220/26 206/218/25 
f 190/201/26 191/202/27 209/221/27 208/220/26 
f 191/202/27 192/203/28 210/222/28 209/221/27 
f 192/205/28 193/204/30 211/223/30 210/224/28 
f 193/204/30 194/206/31 212/225/31 211/223/30 
f 194/206/31 195/207/32 213/226/32 212/225/31 
f 195/207/32 196/208/33 214/227/33 213/226/32 
f 196/208/33 197/209/34 215/228/34 214/227/33 
f 197/209/34 198/210/35 216/229/35 215/228/34 
f 198/210/35 199/211/36 217/230/36 216/229/35 
f 199/211/36 200/212/37 218/231/37 217/230/36 
f 200/212/37 201/213/38 219/232/38 218/231/37 
f 201/213/38 202/214/39 220/233/39 219/232/38 
f 202/214/39 203/215/40 221/234/40 220/233/39 
f 203/215/40 204/216/41 222/235/41 221/234/40 
f 204/216/41 205/217/42 223/236/42 222/235/41 
f 205/217/42 189/200/24 207/219/24 223/236/42 
s 1
f 224/237/43 223/236/43 207/219/43 206/218/43 
f 224/237/43 206/218/43 208/220/43 209/221/43 
f 224/237/43 209/221/43 210/222/43 211/238/43 
f 224/237/43 211/223/43 212/225/43 213/226/43 
f 224/237/43 213/226/43 214/227/43 215/228/43 
f 224/237/43 215/228/43 216/229/43 217/230/43 
f 224/237/43 217/230/43 218/231/43 219/232/43 
f 224/237/43 219/232/43 220/233/43 221/234/43 
f 224/237/43 221/234/43 222/235/43 223/236/43 
# 108 polygons

#
# object Box01
#

v  7.3280 1.4640 -0.3686
v  7.3280 1.4640 2.9631
v  8.1879 1.4640 2.9631
v  8.1879 1.4640 -0.3686
v  8.1879 0.9510 2.9631
v  7.3280 0.9510 2.9631
v  7.3280 0.9510 -0.3686
v  8.1879 0.9510 -0.3686
# 8 vertices

vn 0.0000 1.0000 -0.0000
vn 0.0000 -1.0000 -0.0000
vn 0.0000 0.0000 1.0000
vn 1.0000 0.0000 -0.0000
vn 0.0000 0.0000 -1.0000
vn -1.0000 0.0000 -0.0000
# 6 vertex normals

vt 0.0000 1.0000 0.0000
vt 0.0000 0.0000 0.0000
vt 1.0000 0.0000 0.0000
vt 1.0000 1.0000 0.0000
# 4 texture coords

g Box01
usemtl 02___Default
s 2
f 225/239/44 226/240/44 227/241/44 228/242/44 
s 4
f 229/240/45 230/241/45 231/242/45 232/239/45 
s 8
f 227/241/46 226/240/46 230/239/46 229/242/46 
s 16
f 228/241/47 227/240/47 229/239/47 232/242/47 
s 32
f 225/241/48 228/240/48 232/239/48 231/242/48 
s 64
f 226/241/49 225/240/49 231/239/49 230/242/49 
# 6 polygons

#
# object Box02
#

v  -8.1665 1.4640 -0.3686
v  -8.1665 1.4640 2.9631
v  -7.3067 1.4640 2.9631
v  -7.3067 1.4640 -0.3686
v  -7.3067 0.9510 2.9631
v  -8.1665 0.9510 2.9631
v  -8.1665 0.9510 -0.3686
v  -7.3067 0.9510 -0.3686
# 8 vertices

vn 0.0000 1.0000 -0.0000
vn 0.0000 -1.0000 -0.0000
vn 0.0000 0.0000 1.0000
vn 1.0000 0.0000 -0.0000
vn 0.0000 0.0000 -1.0000
vn -1.0000 0.0000 -0.0000
# 6 vertex normals

vt 0.0000 1.0000 0.0000
vt 0.0000 0.0000 0.0000
vt 1.0000 0.0000 0.0000
vt 1.0000 1.0000 0.0000
# 4 texture coords

g Box02
usemtl 02___Default
s 2
f 233/243/50 234/244/50 235/245/50 236/246/50 
s 4
f 237/244/51 238/245/51 239/246/51 240/243/51 
s 8
f 235/245/52 234/244/52 238/243/52 237/246/52 
s 16
f 236/245/53 235/244/53 237/243/53 240/246/53 
s 32
f 233/245/54 236/244/54 240/243/54 239/246/54 
s 64
f 234/245/55 233/244/55 239/243/55 238/246/55 
# 6 polygons

